# xmcd CD database file
#
# Track frame offsets:
#	150
#	36653
#	92532
#	150652
#	205635
#	219357
#
# Disc length: 3714 seconds
#
# Revision: 0
# Processed by: cddbd v1.5.1PL0 Copyright (c) Steve Scherf et al.
# Submitted via: CDex 1.51
#
DISCID=480e8006
DTITLE=KVHW - 99-07-30 Disc3
DYEAR=1999
DGENRE=Jazz
TTITLE0=City Of Tiny Lights
TTITLE1=Kissin The Boo Boo
TTITLE2=Same World
TTITLE3=Slumber
TTITLE4=crowd-
TTITLE5=Spring Water
EXTD=YEAR: 1999
EXTT0=
EXTT1=
EXTT2=
EXTT3=
EXTT4=
EXTT5=
PLAYORDER=
